<svg version="1.1" id="Layer_1" xmlns="http://www.w3.org/2000/svg" xmlns:xlink="http://www.w3.org/1999/xlink" x="0px" y="0px"
	 width="100%" viewBox="0 0 512 512" enable-background="new 0 0 512 512" xml:space="preserve">
<path fill="#000000" opacity="1.000000" stroke="none" 
	d="
M384.000000,0.999997 
	C426.946808,1.000000 469.893585,1.000000 513.000000,1.000000 
	C513.000000,75.687485 513.000000,150.375092 512.711304,225.845062 
	C511.952576,225.990601 511.346497,225.414093 511.033356,224.707733 
	C507.235718,216.140533 499.482147,212.798904 490.388336,215.854263 
	C482.613434,218.466492 479.165192,226.461807 480.449402,235.261810 
	C481.708221,243.887314 481.885712,252.726669 481.838043,261.468353 
	C481.802399,268.008118 481.003693,274.599823 479.927979,281.065765 
	C477.895813,293.280884 476.169861,305.622772 472.978577,317.554077 
	C465.325531,346.166595 451.855103,371.880280 433.530609,395.286804 
	C420.702942,411.672058 405.911438,425.745575 389.351166,438.114105 
	C365.195740,456.155151 338.247650,468.355957 309.022797,475.370728 
	C298.399445,477.920685 287.507538,479.543671 276.649841,480.862091 
	C268.633881,481.835419 260.454956,482.134338 252.384399,481.818787 
	C242.575897,481.435333 232.804947,480.090851 222.609833,479.093323 
	C215.824066,477.649536 209.446213,476.274445 203.039917,474.439178 
	C202.781403,468.879608 203.012863,463.708496 202.232971,458.694641 
	C200.070938,444.795319 193.399597,432.845215 184.521561,422.249847 
	C180.340042,417.259430 174.899384,413.324097 169.896729,408.598328 
	C165.532974,405.476715 161.301773,402.667480 156.888580,399.559814 
	C147.147842,394.807587 137.589096,390.353851 127.851883,385.586670 
	C123.137863,383.477570 118.602310,381.681946 113.876358,379.571350 
	C89.404755,369.760986 65.690247,359.056488 42.682159,345.979126 
	C41.200554,345.207947 40.081741,344.526825 38.898792,343.985962 
	C34.528030,341.987701 31.150801,343.701233 31.072405,348.375000 
	C30.877028,360.023132 30.428547,371.711151 31.133301,383.319305 
	C32.052559,398.460632 35.607868,413.136871 41.934525,427.427063 
	C44.050655,432.203857 46.106453,436.609863 48.217297,441.361206 
	C55.979809,456.155853 64.399574,470.087219 77.037933,481.361877 
	C81.424934,485.122864 85.661720,488.582367 90.047272,492.356537 
	C102.024078,501.380829 114.876282,507.894623 129.314819,511.081177 
	C129.985046,511.229095 130.443115,512.338440 131.000000,513.000000 
	C87.720123,513.000000 44.440250,513.000000 1.000000,513.000000 
	C1.000000,438.312531 1.000000,363.624908 1.281770,288.147278 
	C2.059939,288.156708 2.646806,288.914337 3.038634,289.762146 
	C6.649554,297.574982 14.381447,301.092133 22.755037,298.694946 
	C30.024492,296.613922 34.864193,288.602356 34.025562,280.687805 
	C33.158672,272.506500 32.173038,264.287872 32.144985,256.082458 
	C32.119789,248.713470 33.453171,241.349197 33.959743,233.967224 
	C35.166019,216.388824 39.334152,199.469055 45.075314,182.891357 
	C55.918289,151.582108 73.273949,124.234337 96.205559,100.489227 
	C103.278297,93.165573 111.357780,86.773888 119.252296,80.291588 
	C144.214951,59.794403 172.806198,46.536118 204.058075,39.027805 
	C214.990631,36.401237 226.161057,34.574123 237.320694,33.147331 
	C245.328766,32.123478 253.519165,31.866156 261.592499,32.181450 
	C271.408661,32.564812 281.187256,33.908749 291.390076,34.906033 
	C298.514526,36.356163 305.231018,37.737400 311.966614,39.525940 
	C312.613617,47.133774 312.389343,54.535835 314.035095,61.495697 
	C318.350189,79.743813 330.187378,93.163513 344.144653,105.382080 
	C348.258240,108.240402 352.200958,110.804756 356.417114,113.617905 
	C366.785004,118.613029 376.879456,123.359344 387.157928,128.412445 
	C391.876740,130.519943 396.411560,132.320648 401.136627,134.426605 
	C415.199402,140.817719 429.158325,146.716003 442.914642,153.054108 
	C452.388336,157.419037 461.581238,162.393372 470.914215,167.061920 
	C470.928772,167.028503 470.861694,166.999939 470.960388,167.240784 
	C471.357361,167.598694 471.655670,167.715744 472.299835,168.001709 
	C479.987549,172.040787 483.875275,169.773834 484.035889,161.648224 
	C484.080200,159.405106 484.566833,157.170731 484.912292,154.471832 
	C484.316895,143.837784 484.641113,133.477875 482.753540,123.537964 
	C480.407166,111.181938 476.232788,99.173035 472.909180,86.644821 
	C470.925079,81.842865 468.879639,77.410309 466.785553,72.629974 
	C464.890015,69.050056 463.143188,65.755692 461.178192,62.597046 
	C454.263336,51.481831 447.066223,40.576431 436.903656,31.595882 
	C432.877899,28.179390 428.986816,25.071697 424.954132,21.644690 
	C412.791443,12.825002 399.938293,6.120285 385.434265,2.904027 
	C384.844452,2.773236 384.473145,1.657067 384.000000,0.999997 
M354.018372,282.004791 
	C356.512085,281.990845 359.036133,282.219330 361.493195,281.912109 
	C366.473938,281.289246 370.103821,277.458191 369.995667,273.311584 
	C369.894806,269.445587 366.421509,265.187775 362.392731,265.107391 
	C350.426514,264.868683 338.445801,264.799744 326.485046,265.151093 
	C322.311707,265.273651 319.182159,267.710785 318.973083,272.610840 
	C318.779907,277.138367 320.174072,280.352509 325.101044,281.067902 
	C328.610962,281.577545 332.128143,282.037262 335.999542,282.568298 
	C335.999542,284.368134 335.999542,286.169586 335.999573,287.971039 
	C335.999756,303.433899 335.969696,318.896881 336.015564,334.359589 
	C336.032959,340.226044 339.110535,342.940430 344.783173,343.063202 
	C350.545837,343.187866 351.623383,339.129150 352.986725,334.057617 
	C353.034149,316.717682 353.081573,299.377777 354.018372,282.004791 
M119.927330,334.256012 
	C123.052536,323.980286 126.177750,313.704559 129.531540,302.677246 
	C130.280869,304.124481 130.745224,304.775696 130.974548,305.501190 
	C134.202835,315.714966 137.325134,325.962830 140.632507,336.150696 
	C142.457825,341.773376 145.235748,343.408630 152.014740,342.966095 
	C156.891907,342.647705 159.080536,339.231171 159.968689,334.956207 
	C163.044266,320.152710 166.035995,305.331268 168.950943,290.495300 
	C170.112671,284.582428 171.344742,278.645416 171.878143,272.660004 
	C172.256149,268.418060 168.508728,265.086090 163.928528,265.067322 
	C159.967163,265.051086 156.983704,266.921387 156.022018,271.046478 
	C155.248352,274.365143 154.680252,277.731232 153.987579,281.069336 
	C152.309052,289.158447 150.611053,297.243500 148.739349,306.198883 
	C145.072754,294.415802 141.475754,283.643646 138.430176,272.717773 
	C137.028458,267.689209 134.315369,264.922272 129.230453,265.073486 
	C123.975044,265.229767 122.324326,269.432861 121.036781,273.590393 
	C117.831024,283.941895 114.742355,294.329651 111.415535,305.335175 
	C110.778183,303.936096 110.216774,303.131165 110.039398,302.249023 
	C107.988152,292.047394 106.050545,281.822693 103.960205,271.629211 
	C103.074707,267.311127 99.526161,264.677032 95.505775,265.020477 
	C90.895821,265.414246 87.849495,268.382629 88.095055,273.127197 
	C88.312866,277.335510 89.204681,281.528015 90.025642,285.682709 
	C93.240425,301.951965 96.603035,318.192169 99.781677,334.468353 
	C100.765831,339.507690 103.058495,342.866058 108.614441,342.997314 
	C115.488892,343.159729 117.315704,341.807770 119.927330,334.256012 
M391.999817,195.220642 
	C391.999878,194.222046 391.953949,193.220993 392.006714,192.225189 
	C393.389038,166.137222 368.730865,146.429489 342.889954,153.307266 
	C327.635162,157.367462 318.148865,167.809067 314.807892,183.934982 
	C310.530640,204.579941 324.353485,226.902954 347.863068,229.850418 
	C368.923309,232.490784 388.957306,218.793213 391.999817,195.220642 
M265.050659,227.428772 
	C265.700409,225.675110 266.820862,223.945129 266.910431,222.163315 
	C267.165344,217.093781 266.999908,212.003113 266.999908,205.859695 
	C273.642853,213.447174 279.591766,220.174179 285.458130,226.972412 
	C288.190857,230.139191 291.992249,231.091782 295.276520,229.576294 
	C297.618103,228.495773 300.163605,225.191406 300.314087,222.738083 
	C300.482483,219.992599 298.507233,216.738281 296.657074,214.324509 
	C292.743622,209.218887 288.304749,204.516037 284.516876,200.149979 
	C288.122772,197.213837 291.524170,194.904602 294.372467,192.044601 
	C306.165771,180.202866 300.450989,159.321762 285.367218,153.907700 
	C276.105347,150.583328 266.699554,152.244476 257.383209,152.250305 
	C253.620056,152.252655 250.878510,155.181549 250.921661,160.007462 
	C251.106094,180.639450 251.126312,201.275482 250.887222,221.906342 
	C250.842697,225.748489 252.722046,228.596786 255.362000,229.383713 
	C258.026337,230.177902 261.406219,228.571625 265.050659,227.428772 
M186.922913,301.293579 
	C183.948059,309.030792 180.893814,316.738861 178.035614,324.518951 
	C176.813324,327.846008 175.699081,331.269806 175.081497,334.746582 
	C174.413544,338.507019 175.704697,341.929260 179.788193,342.766724 
	C183.882385,343.606384 188.161118,343.729431 190.101440,338.575653 
	C190.897156,336.462067 192.347931,334.512848 192.741547,332.350647 
	C193.250458,329.554901 194.645187,328.911713 197.170639,328.967377 
	C202.498535,329.084900 207.830841,329.002563 213.161331,329.002502 
	C221.245697,329.002380 221.245697,329.002472 223.787994,336.438629 
	C225.770065,342.236084 230.195465,344.594696 235.620270,342.744904 
	C239.563751,341.400238 241.371338,335.946381 239.477081,330.974487 
	C232.015488,311.389740 224.444962,291.845673 217.134598,272.204742 
	C215.316284,267.319427 211.829391,265.037567 207.167542,265.144348 
	C202.462128,265.252075 199.248932,267.934601 197.562851,272.751343 
	C194.293686,282.090668 190.550705,291.264160 186.922913,301.293579 
M290.470856,284.982361 
	C291.021149,285.329529 291.547821,285.723236 292.125397,286.016693 
	C298.308502,289.157837 302.470673,288.530029 304.976624,284.097321 
	C307.524017,279.591339 305.990692,275.583313 300.500549,271.821442 
	C292.348297,266.235474 283.736145,263.779755 273.706848,265.877991 
	C264.167145,267.873779 255.912781,275.317596 255.006363,284.065552 
	C253.821045,295.505554 258.818817,303.134521 269.647095,307.074005 
	C275.429840,309.177826 281.169189,311.521423 286.621460,314.348267 
	C288.550964,315.348663 291.040924,318.471985 290.664948,319.971741 
	C290.086395,322.279663 287.614838,324.925262 285.315033,325.839691 
	C277.933136,328.774872 271.668732,325.950165 266.208496,320.730743 
	C262.794495,317.467346 257.067657,316.949982 254.043182,319.514771 
	C250.815018,322.252319 250.201813,326.756317 253.095016,330.949127 
	C254.625275,333.166779 256.960846,334.898682 259.134796,336.590302 
	C269.404449,344.581696 291.819031,346.722015 302.416809,334.373291 
	C309.644989,325.950836 310.639252,310.719727 299.446838,302.993683 
	C294.049408,299.267853 287.639160,297.023773 281.742676,294.001099 
	C277.905579,292.034149 272.618347,292.143005 271.044647,287.107452 
	C273.265747,282.782196 276.649567,281.171814 281.031281,282.040527 
	C284.029205,282.634918 286.950073,283.618011 290.470856,284.982361 
M165.367920,151.999832 
	C153.874100,152.000320 142.379654,151.931976 130.886734,152.033722 
	C125.994019,152.077026 122.895187,155.458527 123.001686,160.190033 
	C123.107788,164.903122 126.284180,167.981323 131.126099,167.994492 
	C138.861084,168.015533 146.596161,168.000122 154.682617,168.000122 
	C154.186340,169.310638 154.028000,170.140762 153.601028,170.795776 
	C143.739319,185.924515 133.694214,200.937698 124.114494,216.242310 
	C122.514885,218.797867 121.536270,223.354034 122.771912,225.624603 
	C124.039017,227.952957 128.337875,229.705612 131.375137,229.810028 
	C144.352814,230.256210 157.354645,230.007416 170.347656,229.996780 
	C176.354645,229.991867 180.029587,226.833618 179.874588,221.854004 
	C179.719116,216.859451 176.366867,214.015549 170.562042,214.004074 
	C162.473541,213.988083 154.384979,214.000061 145.672623,214.000061 
	C146.529266,212.187943 146.938293,210.968369 147.622711,209.930374 
	C153.623718,200.829224 159.728729,191.796280 165.690475,182.669693 
	C169.787384,176.397903 174.076981,170.207108 177.588135,163.611557 
	C180.479828,158.179672 176.514542,152.370560 170.318100,152.013260 
	C168.989868,151.936661 167.653503,152.000610 165.367920,151.999832 
M405.607971,295.999634 
	C403.842285,295.999634 402.076599,295.999634 400.368378,295.999634 
	C400.368378,290.978577 400.368378,286.593170 400.368378,281.996399 
	C405.884094,281.996399 411.080048,282.435150 416.172058,281.894714 
	C424.022644,281.061493 426.241516,278.717255 426.014709,273.067230 
	C425.794861,267.590515 422.729340,265.042450 415.969879,265.008911 
	C408.144073,264.970062 400.317444,264.944702 392.492157,265.018860 
	C386.854523,265.072266 384.006561,267.963257 384.003784,273.457550 
	C383.993530,293.938293 383.986145,314.419037 384.008118,334.899780 
	C384.014648,340.932709 386.005463,342.962738 391.922791,342.989960 
	C400.414612,343.029053 408.906769,343.007599 417.398773,342.997131 
	C422.713531,342.990570 425.896149,340.308411 425.999298,335.784943 
	C426.127869,330.145813 423.066254,327.055298 417.201630,327.009308 
	C411.594330,326.965332 405.986450,326.999817 400.331116,326.999817 
	C400.331116,322.053314 400.331116,317.669037 400.331116,312.997284 
	C405.465759,312.997284 410.275360,313.100586 415.078613,312.970428 
	C420.764618,312.816376 423.940796,309.763977 423.999298,304.676300 
	C424.063660,299.081512 421.187775,296.248322 415.060272,296.018768 
	C412.233551,295.912872 409.399597,296.000031 405.607971,295.999634 
M211.000458,179.326279 
	C211.000458,175.704514 211.000458,172.082764 211.000458,168.000031 
	C217.249619,168.000031 223.036209,168.016602 228.822647,167.994934 
	C233.713074,167.976608 236.889145,165.188660 236.999344,160.873291 
	C237.140045,155.363205 234.192566,152.077637 228.782471,152.023758 
	C220.120697,151.937500 211.456329,151.919373 202.795242,152.034821 
	C198.138107,152.096893 195.052521,155.141586 195.035614,159.798080 
	C194.958832,180.954620 194.817535,202.115524 195.268082,223.262726 
	C195.316727,225.546600 198.916611,229.527466 201.092438,229.687576 
	C210.702454,230.394775 220.397781,230.146271 230.054672,229.920593 
	C234.384460,229.819397 237.293640,225.843781 236.996185,221.352783 
	C236.716125,217.124359 233.582153,214.032410 229.452087,214.009216 
	C223.364151,213.975006 217.275894,214.000381 211.246887,214.000381 
	C211.246887,208.657043 211.246887,204.053467 211.246887,198.999741 
	C216.604065,198.999741 221.726761,199.021011 226.849213,198.993774 
	C231.996964,198.966400 234.930481,196.187256 234.999954,191.337067 
	C235.072830,186.246780 232.135727,183.143234 226.933319,183.021194 
	C222.604370,182.919617 218.259460,183.168930 213.948364,182.873032 
	C212.912308,182.801926 211.982254,181.186127 211.000458,179.326279 
z"/>
<path fill="#74BC57" opacity="1.000000" stroke="none" 
	d="
M290.982117,34.837143 
	C281.187256,33.908749 271.408661,32.564812 261.592499,32.181450 
	C253.519165,31.866156 245.328766,32.123478 237.320694,33.147331 
	C226.161057,34.574123 214.990631,36.401237 204.058075,39.027805 
	C172.806198,46.536118 144.214951,59.794403 119.252296,80.291588 
	C111.357780,86.773888 103.278297,93.165573 96.205559,100.489227 
	C73.273949,124.234337 55.918289,151.582108 45.075314,182.891357 
	C39.334152,199.469055 35.166019,216.388824 33.959743,233.967224 
	C33.453171,241.349197 32.119789,248.713470 32.144985,256.082458 
	C32.173038,264.287872 33.158672,272.506500 34.025562,280.687805 
	C34.864193,288.602356 30.024492,296.613922 22.755037,298.694946 
	C14.381447,301.092133 6.649554,297.574982 3.038634,289.762146 
	C2.646806,288.914337 2.059939,288.156708 1.281770,287.678619 
	C1.000000,267.312439 1.000000,246.624878 1.403057,225.640564 
	C2.229003,223.002167 2.658004,220.661636 3.073816,218.318756 
	C6.419305,199.468811 10.344897,180.652054 18.242073,163.196472 
	C25.840191,146.401917 34.128212,129.764206 43.815483,114.111153 
	C54.817154,96.334236 69.053886,80.883736 84.677422,66.891197 
	C91.166267,61.079762 97.659988,55.166756 104.764343,50.171539 
	C120.285164,39.258530 136.410416,29.350183 154.008072,21.916407 
	C176.105576,12.581756 198.765045,5.567092 222.683685,2.917919 
	C223.516388,2.825692 224.230576,1.663496 225.000000,1.000000 
	C246.020889,1.000000 267.041779,1.000000 288.335358,1.392751 
	C289.937683,2.190273 291.247864,2.682837 292.600769,2.982632 
	C296.052032,3.747405 299.522400,4.426166 302.906647,5.475410 
	C297.259674,14.825608 292.136505,24.021500 290.982117,34.837143 
z"/>
<path fill="#74BC57" opacity="1.000000" stroke="none" 
	d="
M223.017761,479.162079 
	C232.804947,480.090851 242.575897,481.435333 252.384399,481.818787 
	C260.454956,482.134338 268.633881,481.835419 276.649841,480.862091 
	C287.507538,479.543671 298.399445,477.920685 309.022797,475.370728 
	C338.247650,468.355957 365.195740,456.155151 389.351166,438.114105 
	C405.911438,425.745575 420.702942,411.672058 433.530609,395.286804 
	C451.855103,371.880280 465.325531,346.166595 472.978577,317.554077 
	C476.169861,305.622772 477.895813,293.280884 479.927979,281.065765 
	C481.003693,274.599823 481.802399,268.008118 481.838043,261.468353 
	C481.885712,252.726669 481.708221,243.887314 480.449402,235.261810 
	C479.165192,226.461807 482.613434,218.466492 490.388336,215.854263 
	C499.482147,212.798904 507.235718,216.140533 511.033356,224.707733 
	C511.346497,225.414093 511.952576,225.990601 512.711304,226.313721 
	C513.000000,246.687561 513.000000,267.375122 512.597229,288.356812 
	C511.806183,289.327515 511.215973,289.960602 511.059509,290.687103 
	C508.039825,304.707611 505.708557,318.912964 501.939850,332.726807 
	C496.498505,352.671570 487.710754,371.255981 477.077118,389.045013 
	C461.623169,414.897980 442.050079,437.224884 418.945679,456.236023 
	C401.114227,470.908417 381.427856,482.974884 360.009094,492.056152 
	C337.920685,501.421295 315.234589,508.400421 291.315613,511.081879 
	C290.482544,511.175262 289.769165,512.336487 289.000000,513.000000 
	C267.979095,513.000000 246.958206,513.000000 225.659546,512.605835 
	C224.052826,511.807770 222.743210,511.316650 221.391174,511.016998 
	C217.942535,510.252625 214.474960,509.573669 211.093353,508.524414 
	C216.726562,499.168365 221.868973,489.980164 223.017761,479.162079 
z"/>
<path fill="#000000" opacity="1.000000" stroke="none" 
	d="
M289.468658,513.000000 
	C289.769165,512.336487 290.482544,511.175262 291.315613,511.081879 
	C315.234589,508.400421 337.920685,501.421295 360.009094,492.056152 
	C381.427856,482.974884 401.114227,470.908417 418.945679,456.236023 
	C442.050079,437.224884 461.623169,414.897980 477.077118,389.045013 
	C487.710754,371.255981 496.498505,352.671570 501.939850,332.726807 
	C505.708557,318.912964 508.039825,304.707611 511.059509,290.687103 
	C511.215973,289.960602 511.806183,289.327515 512.597229,288.825470 
	C513.000000,363.593719 513.000000,438.187408 513.000000,513.000000 
	C438.645905,513.000000 364.291626,513.000000 289.468658,513.000000 
z"/>
<path fill="#000000" opacity="1.000000" stroke="none" 
	d="
M224.531342,1.000000 
	C224.230576,1.663496 223.516388,2.825692 222.683685,2.917919 
	C198.765045,5.567092 176.105576,12.581756 154.008072,21.916407 
	C136.410416,29.350183 120.285164,39.258530 104.764343,50.171539 
	C97.659988,55.166756 91.166267,61.079762 84.677422,66.891197 
	C69.053886,80.883736 54.817154,96.334236 43.815483,114.111153 
	C34.128212,129.764206 25.840191,146.401917 18.242073,163.196472 
	C10.344897,180.652054 6.419305,199.468811 3.073816,218.318756 
	C2.658004,220.661636 2.229003,223.002167 1.403057,225.171906 
	C1.000000,150.406296 1.000000,75.812576 1.000000,1.000000 
	C75.354088,1.000000 149.708389,1.000000 224.531342,1.000000 
z"/>
<path fill="#74BC57" opacity="1.000000" stroke="none" 
	d="
M157.070557,399.858246 
	C161.301773,402.667480 165.532974,405.476715 169.817017,408.959412 
	C159.689789,430.997772 162.701569,451.939697 171.843521,472.708496 
	C173.507172,476.487976 176.028778,479.072418 180.281860,479.582153 
	C187.193771,480.410522 194.108414,481.216187 200.983276,482.403564 
	C198.349411,487.298401 196.003021,491.991119 193.070679,496.283569 
	C191.145966,499.100983 188.374832,501.340210 185.625732,503.915405 
	C179.697052,506.334717 174.108566,508.638611 168.575500,511.068726 
	C167.898254,511.366211 167.517929,512.339783 167.000000,513.000000 
	C155.312439,513.000000 143.624878,513.000000 131.468658,513.000000 
	C130.443115,512.338440 129.985046,511.229095 129.314819,511.081177 
	C114.876282,507.894623 102.024078,501.380829 90.368332,492.200928 
	C97.612617,488.612518 104.684608,485.494385 111.937401,482.296509 
	C107.215683,478.774994 102.616692,475.345032 98.285461,471.691467 
	C103.979156,469.736450 109.405106,468.005066 115.358818,466.105286 
	C101.301247,454.576813 86.827644,445.250092 69.204277,441.791870 
	C74.613091,451.302734 81.900673,458.915833 89.861855,465.974182 
	C91.794533,467.687683 93.305916,469.876373 94.768822,472.097961 
	C88.646996,475.252991 82.767357,478.156677 76.887726,481.060333 
	C64.399574,470.087219 55.979809,456.155853 48.624825,441.313538 
	C54.388218,440.398376 59.799129,439.876251 65.229065,439.352264 
	C62.577770,433.849487 60.245564,429.008972 58.341919,424.132080 
	C62.101646,424.355774 65.432808,424.615814 69.184654,424.908722 
	C58.953739,409.566711 49.266239,395.039612 38.906368,379.504242 
	C39.891872,383.171936 40.338696,385.935638 41.364452,388.464478 
	C46.175209,400.324860 51.145203,412.120605 55.652523,423.990356 
	C50.789204,425.046265 46.331696,426.051270 41.874191,427.056274 
	C35.607868,413.136871 32.052559,398.460632 31.133301,383.319305 
	C30.428547,371.711151 30.877028,360.023132 31.072405,348.375000 
	C31.150801,343.701233 34.528030,341.987701 38.898792,343.985962 
	C40.081741,344.526825 41.200554,345.207947 42.709778,346.353638 
	C48.282360,358.371246 52.814781,370.231445 58.851910,381.268524 
	C70.198883,402.013153 85.293800,419.975342 102.622551,436.042419 
	C103.591499,436.940857 104.885841,437.488373 106.873878,438.724884 
	C104.666588,417.775116 106.505135,398.450714 114.066750,379.886322 
	C118.602310,381.681946 123.137863,383.477570 127.771439,385.960754 
	C121.740097,401.685883 120.995445,417.498901 122.249809,433.313293 
	C122.828537,440.609619 123.958435,449.102631 128.106735,454.575958 
	C133.893478,462.211090 143.735901,465.740753 153.548996,469.888733 
	C153.035339,467.853577 152.802811,466.778137 152.492508,465.725677 
	C146.791458,446.388489 145.448410,427.156311 153.771637,408.124664 
	C154.959778,405.407898 155.975204,402.615601 157.070557,399.858246 
M139.079376,483.287445 
	C131.709641,482.056641 124.342606,481.146210 116.927635,483.423981 
	C134.902328,493.927429 154.096161,497.870117 174.544907,495.501831 
	C174.663116,495.063690 174.781342,494.625549 174.899551,494.187408 
	C163.238205,490.617249 151.576843,487.047089 139.079376,483.287445 
M38.501648,376.529907 
	C38.501648,376.529907 38.488735,376.490540 38.501648,376.529907 
z"/>
<path fill="#88CE65" opacity="1.000000" stroke="none" 
	d="
M383.531342,0.999997 
	C384.473145,1.657067 384.844452,2.773236 385.434265,2.904027 
	C399.938293,6.120285 412.791443,12.825002 424.632355,21.797432 
	C402.762573,34.936718 380.637207,34.116051 357.637512,25.681398 
	C346.506500,21.599337 334.528748,19.826199 323.108276,16.724550 
	C324.860809,14.612586 326.439423,12.783749 328.359955,10.874622 
	C334.853821,8.164582 341.018402,5.563308 347.132782,2.849015 
	C347.602844,2.640365 347.719238,1.635027 348.000000,1.000001 
	C359.687561,1.000000 371.375122,1.000000 383.531342,0.999997 
z"/>
<path fill="#000000" opacity="1.000000" stroke="none" 
	d="
M347.531342,1.000001 
	C347.719238,1.635027 347.602844,2.640365 347.132782,2.849015 
	C341.018402,5.563308 334.853821,8.164582 328.168945,10.544422 
	C319.419037,8.576121 311.202057,6.857731 302.985107,5.139341 
	C299.522400,4.426166 296.052032,3.747405 292.600769,2.982632 
	C291.247864,2.682837 289.937683,2.190273 288.804016,1.392751 
	C308.354218,1.000000 327.708466,1.000000 347.531342,1.000001 
z"/>
<path fill="#000000" opacity="1.000000" stroke="none" 
	d="
M167.468658,513.000000 
	C167.517929,512.339783 167.898254,511.366211 168.575500,511.068726 
	C174.108566,508.638611 179.697052,506.334717 186.027176,503.981995 
	C194.862091,505.601227 202.938538,507.230865 211.014969,508.860504 
	C214.474960,509.573669 217.942535,510.252625 221.391174,511.016998 
	C222.743210,511.316650 224.052826,511.807770 225.190887,512.605835 
	C205.979111,513.000000 186.958206,513.000000 167.468658,513.000000 
z"/>
<path fill="#74BC57" opacity="1.000000" stroke="none" 
	d="
M322.934357,17.007679 
	C334.528748,19.826199 346.506500,21.599337 357.637512,25.681398 
	C380.637207,34.116051 402.762573,34.936718 424.773956,22.116749 
	C428.986816,25.071697 432.877899,28.179390 436.706787,31.876892 
	C425.838104,40.749390 412.966431,44.259693 398.726562,47.822952 
	C405.891266,52.845280 411.633179,57.356377 417.830170,61.117668 
	C432.854675,70.236832 448.594696,76.912331 466.834198,72.977760 
	C468.879639,77.410309 470.925079,81.842865 472.527161,86.680267 
	C463.399139,88.271042 454.714478,89.456970 445.903046,90.660202 
	C446.304474,91.254417 446.905518,92.190407 447.552002,93.093910 
	C453.169189,100.944626 459.385193,108.441284 464.268433,116.724014 
	C470.413910,127.147720 475.471680,138.212708 480.648254,148.921463 
	C473.940979,145.674377 467.584229,142.506821 461.227478,139.339279 
	C460.941437,139.717865 460.655396,140.096466 460.369324,140.475052 
	C461.954681,143.735840 463.777924,146.905380 465.071564,150.278061 
	C467.195068,155.814468 468.974915,161.482697 470.899658,167.095337 
	C461.581238,162.393372 452.388336,157.419037 442.914642,153.054108 
	C429.158325,146.716003 415.199402,140.817719 401.225891,134.056244 
	C402.590454,128.837814 404.106873,124.310585 405.505035,119.747116 
	C406.567780,116.278282 405.832306,113.711067 401.987152,112.357109 
	C398.581146,111.157768 395.337891,109.496017 392.001129,108.005112 
	C391.979462,107.971809 391.935974,107.905304 391.959137,107.485062 
	C393.943695,93.079941 393.550812,79.205917 389.847046,65.523293 
	C389.246185,63.303665 388.743347,60.561832 387.196320,59.178463 
	C379.880585,52.636543 371.165039,48.379642 361.159729,43.966064 
	C365.723755,60.873512 369.449615,76.721664 364.522583,93.019493 
	C360.010162,90.390526 355.848572,87.809219 351.864410,85.337975 
	C349.217926,91.962158 346.595856,98.525139 343.973816,105.088104 
	C330.187378,93.163513 318.350189,79.743813 314.035095,61.495697 
	C312.389343,54.535835 312.613617,47.133774 312.056702,39.131344 
	C312.456757,36.548458 312.713165,34.750370 313.127808,32.989532 
	C314.634705,26.590321 317.190948,20.815895 322.934357,17.007679 
M449.198120,133.257431 
	C451.716400,134.360977 454.234650,135.464523 456.752930,136.568069 
	C457.034485,136.221207 457.316071,135.874329 457.597626,135.527466 
	C444.712494,113.044014 429.364563,92.571785 409.249268,75.822090 
	C408.503540,88.421944 407.707153,100.126526 407.262756,111.844460 
	C407.213348,113.147247 408.881683,115.145546 410.238281,115.773170 
	C422.929565,121.644730 435.726746,127.287415 449.198120,133.257431 
M333.040161,64.428436 
	C338.332123,70.596825 343.624084,76.765205 349.320221,83.404739 
	C350.349487,81.588753 350.730927,81.196190 350.787659,80.761261 
	C350.937317,79.614281 350.964935,78.449600 351.007874,77.290741 
	C351.441162,65.600800 348.676208,54.569641 343.998749,43.965801 
	C340.237762,35.439526 329.474457,30.578798 319.648285,33.060555 
	C321.074982,44.544083 326.216400,54.456367 333.040161,64.428436 
z"/>
<path fill="#88CE65" opacity="1.000000" stroke="none" 
	d="
M119.735291,334.606384 
	C117.315704,341.807770 115.488892,343.159729 108.614441,342.997314 
	C103.058495,342.866058 100.765831,339.507690 99.781677,334.468353 
	C96.603035,318.192169 93.240425,301.951965 90.025642,285.682709 
	C89.204681,281.528015 88.312866,277.335510 88.095055,273.127197 
	C87.849495,268.382629 90.895821,265.414246 95.505775,265.020477 
	C99.526161,264.677032 103.074707,267.311127 103.960205,271.629211 
	C106.050545,281.822693 107.988152,292.047394 110.039398,302.249023 
	C110.216774,303.131165 110.778183,303.936096 111.415535,305.335175 
	C114.742355,294.329651 117.831024,283.941895 121.036781,273.590393 
	C122.324326,269.432861 123.975044,265.229767 129.230453,265.073486 
	C134.315369,264.922272 137.028458,267.689209 138.430176,272.717773 
	C141.475754,283.643646 145.072754,294.415802 148.739349,306.198883 
	C150.611053,297.243500 152.309052,289.158447 153.987579,281.069336 
	C154.680252,277.731232 155.248352,274.365143 156.022018,271.046478 
	C156.983704,266.921387 159.967163,265.051086 163.928528,265.067322 
	C168.508728,265.086090 172.256149,268.418060 171.878143,272.660004 
	C171.344742,278.645416 170.112671,284.582428 168.950943,290.495300 
	C166.035995,305.331268 163.044266,320.152710 159.968689,334.956207 
	C159.080536,339.231171 156.891907,342.647705 152.014740,342.966095 
	C145.235748,343.408630 142.457825,341.773376 140.632507,336.150696 
	C137.325134,325.962830 134.202835,315.714966 130.974548,305.501190 
	C130.745224,304.775696 130.280869,304.124481 129.531540,302.677246 
	C126.177750,313.704559 123.052536,323.980286 119.735291,334.606384 
z"/>
<path fill="#88CE65" opacity="1.000000" stroke="none" 
	d="
M391.999298,195.681030 
	C388.957306,218.793213 368.923309,232.490784 347.863068,229.850418 
	C324.353485,226.902954 310.530640,204.579941 314.807892,183.934982 
	C318.148865,167.809067 327.635162,157.367462 342.889954,153.307266 
	C368.730865,146.429489 393.389038,166.137222 392.006714,192.225189 
	C391.953949,193.220993 391.999878,194.222046 391.999298,195.681030 
M375.998230,190.578903 
	C375.655426,188.831314 375.394958,187.062744 374.956055,185.339661 
	C372.633728,176.222900 361.926422,167.406433 352.905701,168.272049 
	C344.757294,169.053986 337.522247,172.378342 333.330383,180.217804 
	C329.048340,188.225937 329.446594,196.218994 334.362244,203.560760 
	C338.984711,210.464676 348.019135,215.114288 356.332855,213.286377 
	C368.099579,210.699265 374.344696,203.126862 375.998230,190.578903 
z"/>
<path fill="#88CE65" opacity="1.000000" stroke="none" 
	d="
M264.761658,227.722900 
	C261.406219,228.571625 258.026337,230.177902 255.362000,229.383713 
	C252.722046,228.596786 250.842697,225.748489 250.887222,221.906342 
	C251.126312,201.275482 251.106094,180.639450 250.921661,160.007462 
	C250.878510,155.181549 253.620056,152.252655 257.383209,152.250305 
	C266.699554,152.244476 276.105347,150.583328 285.367218,153.907700 
	C300.450989,159.321762 306.165771,180.202866 294.372467,192.044601 
	C291.524170,194.904602 288.122772,197.213837 284.516876,200.149979 
	C288.304749,204.516037 292.743622,209.218887 296.657074,214.324509 
	C298.507233,216.738281 300.482483,219.992599 300.314087,222.738083 
	C300.163605,225.191406 297.618103,228.495773 295.276520,229.576294 
	C291.992249,231.091782 288.190857,230.139191 285.458130,226.972412 
	C279.591766,220.174179 273.642853,213.447174 266.999908,205.859695 
	C266.999908,212.003113 267.165344,217.093781 266.910431,222.163315 
	C266.820862,223.945129 265.700409,225.675110 264.761658,227.722900 
M283.938019,174.914642 
	C280.480011,168.495041 276.454590,166.954285 267.000153,168.640137 
	C267.000153,171.029984 267.000153,173.490784 267.000153,175.951569 
	C267.000153,178.544647 267.000153,181.137741 267.000153,183.996765 
	C270.279541,183.996765 272.923767,184.122528 275.551727,183.969162 
	C280.242157,183.695450 283.396149,180.520676 283.938019,174.914642 
z"/>
<path fill="#88CE65" opacity="1.000000" stroke="none" 
	d="
M186.963470,300.899963 
	C190.550705,291.264160 194.293686,282.090668 197.562851,272.751343 
	C199.248932,267.934601 202.462128,265.252075 207.167542,265.144348 
	C211.829391,265.037567 215.316284,267.319427 217.134598,272.204742 
	C224.444962,291.845673 232.015488,311.389740 239.477081,330.974487 
	C241.371338,335.946381 239.563751,341.400238 235.620270,342.744904 
	C230.195465,344.594696 225.770065,342.236084 223.787994,336.438629 
	C221.245697,329.002472 221.245697,329.002380 213.161331,329.002502 
	C207.830841,329.002563 202.498535,329.084900 197.170639,328.967377 
	C194.645187,328.911713 193.250458,329.554901 192.741547,332.350647 
	C192.347931,334.512848 190.897156,336.462067 190.101440,338.575653 
	C188.161118,343.729431 183.882385,343.606384 179.788193,342.766724 
	C175.704697,341.929260 174.413544,338.507019 175.081497,334.746582 
	C175.699081,331.269806 176.813324,327.846008 178.035614,324.518951 
	C180.893814,316.738861 183.948059,309.030792 186.963470,300.899963 
M210.931381,301.770142 
	C209.827072,299.365753 208.722778,296.961395 207.331879,293.933014 
	C204.980011,300.202057 202.869934,305.826630 200.704163,311.599579 
	C205.556259,311.599579 209.706238,311.599579 214.280991,311.599579 
	C213.069427,308.257751 212.036133,305.407654 210.931381,301.770142 
z"/>
<path fill="#88CE65" opacity="1.000000" stroke="none" 
	d="
M290.188110,284.704834 
	C286.950073,283.618011 284.029205,282.634918 281.031281,282.040527 
	C276.649567,281.171814 273.265747,282.782196 271.044647,287.107452 
	C272.618347,292.143005 277.905579,292.034149 281.742676,294.001099 
	C287.639160,297.023773 294.049408,299.267853 299.446838,302.993683 
	C310.639252,310.719727 309.644989,325.950836 302.416809,334.373291 
	C291.819031,346.722015 269.404449,344.581696 259.134796,336.590302 
	C256.960846,334.898682 254.625275,333.166779 253.095016,330.949127 
	C250.201813,326.756317 250.815018,322.252319 254.043182,319.514771 
	C257.067657,316.949982 262.794495,317.467346 266.208496,320.730743 
	C271.668732,325.950165 277.933136,328.774872 285.315033,325.839691 
	C287.614838,324.925262 290.086395,322.279663 290.664948,319.971741 
	C291.040924,318.471985 288.550964,315.348663 286.621460,314.348267 
	C281.169189,311.521423 275.429840,309.177826 269.647095,307.074005 
	C258.818817,303.134521 253.821045,295.505554 255.006363,284.065552 
	C255.912781,275.317596 264.167145,267.873779 273.706848,265.877991 
	C283.736145,263.779755 292.348297,266.235474 300.500549,271.821442 
	C305.990692,275.583313 307.524017,279.591339 304.976624,284.097321 
	C302.470673,288.530029 298.308502,289.157837 292.125397,286.016693 
	C291.547821,285.723236 291.021149,285.329529 290.188110,284.704834 
z"/>
<path fill="#88CE65" opacity="1.000000" stroke="none" 
	d="
M165.844406,151.999832 
	C167.653503,152.000610 168.989868,151.936661 170.318100,152.013260 
	C176.514542,152.370560 180.479828,158.179672 177.588135,163.611557 
	C174.076981,170.207108 169.787384,176.397903 165.690475,182.669693 
	C159.728729,191.796280 153.623718,200.829224 147.622711,209.930374 
	C146.938293,210.968369 146.529266,212.187943 145.672623,214.000061 
	C154.384979,214.000061 162.473541,213.988083 170.562042,214.004074 
	C176.366867,214.015549 179.719116,216.859451 179.874588,221.854004 
	C180.029587,226.833618 176.354645,229.991867 170.347656,229.996780 
	C157.354645,230.007416 144.352814,230.256210 131.375137,229.810028 
	C128.337875,229.705612 124.039017,227.952957 122.771912,225.624603 
	C121.536270,223.354034 122.514885,218.797867 124.114494,216.242310 
	C133.694214,200.937698 143.739319,185.924515 153.601028,170.795776 
	C154.028000,170.140762 154.186340,169.310638 154.682617,168.000122 
	C146.596161,168.000122 138.861084,168.015533 131.126099,167.994492 
	C126.284180,167.981323 123.107788,164.903122 123.001686,160.190033 
	C122.895187,155.458527 125.994019,152.077026 130.886734,152.033722 
	C142.379654,151.931976 153.874100,152.000320 165.844406,151.999832 
z"/>
<path fill="#88CE65" opacity="1.000000" stroke="none" 
	d="
M113.876358,379.571350 
	C106.505135,398.450714 104.666588,417.775116 106.873878,438.724884 
	C104.885841,437.488373 103.591499,436.940857 102.622551,436.042419 
	C85.293800,419.975342 70.198883,402.013153 58.851910,381.268524 
	C52.814781,370.231445 48.282360,358.371246 43.043137,346.508057 
	C65.690247,359.056488 89.404755,369.760986 113.876358,379.571350 
z"/>
<path fill="#88CE65" opacity="1.000000" stroke="none" 
	d="
M406.088440,295.999634 
	C409.399597,296.000031 412.233551,295.912872 415.060272,296.018768 
	C421.187775,296.248322 424.063660,299.081512 423.999298,304.676300 
	C423.940796,309.763977 420.764618,312.816376 415.078613,312.970428 
	C410.275360,313.100586 405.465759,312.997284 400.331116,312.997284 
	C400.331116,317.669037 400.331116,322.053314 400.331116,326.999817 
	C405.986450,326.999817 411.594330,326.965332 417.201630,327.009308 
	C423.066254,327.055298 426.127869,330.145813 425.999298,335.784943 
	C425.896149,340.308411 422.713531,342.990570 417.398773,342.997131 
	C408.906769,343.007599 400.414612,343.029053 391.922791,342.989960 
	C386.005463,342.962738 384.014648,340.932709 384.008118,334.899780 
	C383.986145,314.419037 383.993530,293.938293 384.003784,273.457550 
	C384.006561,267.963257 386.854523,265.072266 392.492157,265.018860 
	C400.317444,264.944702 408.144073,264.970062 415.969879,265.008911 
	C422.729340,265.042450 425.794861,267.590515 426.014709,273.067230 
	C426.241516,278.717255 424.022644,281.061493 416.172058,281.894714 
	C411.080048,282.435150 405.884094,281.996399 400.368378,281.996399 
	C400.368378,286.593170 400.368378,290.978577 400.368378,295.999634 
	C402.076599,295.999634 403.842285,295.999634 406.088440,295.999634 
z"/>
<path fill="#88CE65" opacity="1.000000" stroke="none" 
	d="
M211.001953,179.803497 
	C211.982254,181.186127 212.912308,182.801926 213.948364,182.873032 
	C218.259460,183.168930 222.604370,182.919617 226.933319,183.021194 
	C232.135727,183.143234 235.072830,186.246780 234.999954,191.337067 
	C234.930481,196.187256 231.996964,198.966400 226.849213,198.993774 
	C221.726761,199.021011 216.604065,198.999741 211.246887,198.999741 
	C211.246887,204.053467 211.246887,208.657043 211.246887,214.000381 
	C217.275894,214.000381 223.364151,213.975006 229.452087,214.009216 
	C233.582153,214.032410 236.716125,217.124359 236.996185,221.352783 
	C237.293640,225.843781 234.384460,229.819397 230.054672,229.920593 
	C220.397781,230.146271 210.702454,230.394775 201.092438,229.687576 
	C198.916611,229.527466 195.316727,225.546600 195.268082,223.262726 
	C194.817535,202.115524 194.958832,180.954620 195.035614,159.798080 
	C195.052521,155.141586 198.138107,152.096893 202.795242,152.034821 
	C211.456329,151.919373 220.120697,151.937500 228.782471,152.023758 
	C234.192566,152.077637 237.140045,155.363205 236.999344,160.873291 
	C236.889145,165.188660 233.713074,167.976608 228.822647,167.994934 
	C223.036209,168.016602 217.249619,168.000031 211.000458,168.000031 
	C211.000458,172.082764 211.000458,175.704514 211.001953,179.803497 
z"/>
<path fill="#88CE65" opacity="1.000000" stroke="none" 
	d="
M201.021912,482.031433 
	C194.108414,481.216187 187.193771,480.410522 180.281860,479.582153 
	C176.028778,479.072418 173.507172,476.487976 171.843521,472.708496 
	C162.701569,451.939697 159.689789,430.997772 169.949554,409.271759 
	C174.899384,413.324097 180.340042,417.259430 184.521561,422.249847 
	C193.399597,432.845215 200.070938,444.795319 202.232971,458.694641 
	C203.012863,463.708496 202.781403,468.879608 202.889954,474.781403 
	C202.186279,477.733032 201.604095,479.882233 201.021912,482.031433 
z"/>
<path fill="#88CE65" opacity="1.000000" stroke="none" 
	d="
M156.888580,399.559814 
	C155.975204,402.615601 154.959778,405.407898 153.771637,408.124664 
	C145.448410,427.156311 146.791458,446.388489 152.492508,465.725677 
	C152.802811,466.778137 153.035339,467.853577 153.548996,469.888733 
	C143.735901,465.740753 133.893478,462.211090 128.106735,454.575958 
	C123.958435,449.102631 122.828537,440.609619 122.249809,433.313293 
	C120.995445,417.498901 121.740097,401.685883 127.949905,386.274231 
	C137.589096,390.353851 147.147842,394.807587 156.888580,399.559814 
z"/>
<path fill="#88CE65" opacity="1.000000" stroke="none" 
	d="
M352.842743,334.982605 
	C351.623383,339.129150 350.545837,343.187866 344.783173,343.063202 
	C339.110535,342.940430 336.032959,340.226044 336.015564,334.359589 
	C335.969696,318.896881 335.999756,303.433899 335.999573,287.971039 
	C335.999542,286.169586 335.999542,284.368134 335.999542,282.568298 
	C332.128143,282.037262 328.610962,281.577545 325.101044,281.067902 
	C320.174072,280.352509 318.779907,277.138367 318.973083,272.610840 
	C319.182159,267.710785 322.311707,265.273651 326.485046,265.151093 
	C338.445801,264.799744 350.426514,264.868683 362.392731,265.107391 
	C366.421509,265.187775 369.894806,269.445587 369.995667,273.311584 
	C370.103821,277.458191 366.473938,281.289246 361.493195,281.912109 
	C359.036133,282.219330 356.512085,281.990845 353.354370,282.369995 
	C352.464996,283.866608 352.046661,284.997528 352.043365,286.129608 
	C351.999847,301.124298 351.994385,316.119171 352.050781,331.113800 
	C352.055634,332.404358 352.566772,333.693054 352.842743,334.982605 
z"/>
<path fill="#88CE65" opacity="1.000000" stroke="none" 
	d="
M466.785553,72.629974 
	C448.594696,76.912331 432.854675,70.236832 417.830170,61.117668 
	C411.633179,57.356377 405.891266,52.845280 398.726562,47.822952 
	C412.966431,44.259693 425.838104,40.749390 436.841492,32.185696 
	C447.066223,40.576431 454.263336,51.481831 461.178192,62.597046 
	C463.143188,65.755692 464.890015,69.050056 466.785553,72.629974 
z"/>
<path fill="#88CE65" opacity="1.000000" stroke="none" 
	d="
M480.998779,149.000992 
	C475.471680,138.212708 470.413910,127.147720 464.268433,116.724014 
	C459.385193,108.441284 453.169189,100.944626 447.552002,93.093910 
	C446.905518,92.190407 446.304474,91.254417 445.903046,90.660202 
	C454.714478,89.456970 463.399139,88.271042 472.465820,87.049667 
	C476.232788,99.173035 480.407166,111.181938 482.753540,123.537964 
	C484.641113,133.477875 484.316895,143.837784 484.659210,154.272659 
	C483.229156,152.689651 482.113953,150.845322 480.998779,149.000992 
z"/>
<path fill="#69AD4D" opacity="1.000000" stroke="none" 
	d="
M323.108276,16.724550 
	C317.190948,20.815895 314.634705,26.590321 313.127808,32.989532 
	C312.713165,34.750370 312.456757,36.548458 312.037659,38.724045 
	C305.231018,37.737400 298.514526,36.356163 291.390076,34.906029 
	C292.136505,24.021500 297.259674,14.825608 302.906647,5.475410 
	C311.202057,6.857731 319.419037,8.576121 327.826996,10.624712 
	C326.439423,12.783749 324.860809,14.612586 323.108276,16.724550 
z"/>
<path fill="#69AD4D" opacity="1.000000" stroke="none" 
	d="
M200.983276,482.403564 
	C201.604095,479.882233 202.186279,477.733032 202.918411,475.241608 
	C209.446213,476.274445 215.824066,477.649536 222.609833,479.093323 
	C221.868973,489.980164 216.726562,499.168365 211.093353,508.524414 
	C202.938538,507.230865 194.862091,505.601227 186.384216,503.904968 
	C188.374832,501.340210 191.145966,499.100983 193.070679,496.283569 
	C196.003021,491.991119 198.349411,487.298401 200.983276,482.403564 
z"/>
<path fill="#74BC57" opacity="1.000000" stroke="none" 
	d="
M386.973938,128.105667 
	C376.879456,123.359344 366.785004,118.613029 356.737061,113.383209 
	C359.551300,106.906708 362.318970,100.913719 365.427704,95.017929 
	C374.491180,99.378525 383.213593,103.641914 391.935974,107.905304 
	C391.935974,107.905304 391.979462,107.971809 391.910980,108.384842 
	C390.219666,115.233810 388.596802,121.669739 386.973938,128.105667 
z"/>
<path fill="#69AD4D" opacity="1.000000" stroke="none" 
	d="
M480.648254,148.921463 
	C482.113953,150.845322 483.229156,152.689651 484.597473,154.733154 
	C484.566833,157.170731 484.080200,159.405106 484.035889,161.648224 
	C483.875275,169.773834 479.987549,172.040787 472.124756,167.854736 
	C471.350311,167.367630 471.102936,167.188004 470.861694,166.999939 
	C470.861694,166.999939 470.928772,167.028503 470.914215,167.061920 
	C468.974915,161.482697 467.195068,155.814468 465.071564,150.278061 
	C463.777924,146.905380 461.954681,143.735840 460.369324,140.475052 
	C460.655396,140.096466 460.941437,139.717865 461.227478,139.339279 
	C467.584229,142.506821 473.940979,145.674377 480.648254,148.921463 
z"/>
<path fill="#69AD4D" opacity="1.000000" stroke="none" 
	d="
M98.017700,471.915070 
	C102.616692,475.345032 107.215683,478.774994 111.937401,482.296509 
	C104.684608,485.494385 97.612617,488.612518 90.219559,491.886292 
	C85.661720,488.582367 81.424934,485.122864 77.037933,481.361877 
	C82.767357,478.156677 88.646996,475.252991 95.144089,472.120300 
	C96.513596,471.899231 97.265656,471.907166 98.017700,471.915070 
z"/>
<path fill="#69AD4D" opacity="1.000000" stroke="none" 
	d="
M365.086609,94.920731 
	C362.318970,100.913719 359.551300,106.906708 356.463654,113.134407 
	C352.200958,110.804756 348.258240,108.240402 344.144653,105.382080 
	C346.595856,98.525139 349.217926,91.962158 351.864410,85.337975 
	C355.848572,87.809219 360.010162,90.390526 364.561035,93.327972 
	C364.995758,94.096321 365.041199,94.508522 365.086609,94.920731 
z"/>
<path fill="#69AD4D" opacity="1.000000" stroke="none" 
	d="
M387.157928,128.412445 
	C388.596802,121.669739 390.219666,115.233810 391.932648,108.418152 
	C395.337891,109.496017 398.581146,111.157768 401.987152,112.357109 
	C405.832306,113.711067 406.567780,116.278282 405.505035,119.747116 
	C404.106873,124.310585 402.590454,128.837814 401.035645,133.750977 
	C396.411560,132.320648 391.876740,130.519943 387.157928,128.412445 
z"/>
<path fill="#69AD4D" opacity="1.000000" stroke="none" 
	d="
M57.913353,424.168457 
	C60.245564,429.008972 62.577770,433.849487 65.229065,439.352264 
	C59.799129,439.876251 54.388218,440.398376 48.569782,440.968170 
	C46.106453,436.609863 44.050655,432.203857 41.934521,427.427063 
	C46.331696,426.051270 50.789204,425.046265 55.961906,424.024841 
	C57.089180,424.061737 57.501266,424.115112 57.913353,424.168457 
z"/>
<path fill="#88CE65" opacity="1.000000" stroke="none" 
	d="
M352.914734,334.520111 
	C352.566772,333.693054 352.055634,332.404358 352.050781,331.113800 
	C351.994385,316.119171 351.999847,301.124298 352.043365,286.129608 
	C352.046661,284.997528 352.464996,283.866608 352.909668,282.386505 
	C353.081573,299.377777 353.034149,316.717682 352.914734,334.520111 
z"/>
<path fill="#74BC57" opacity="1.000000" stroke="none" 
	d="
M470.960388,167.240784 
	C471.102936,167.188004 471.350311,167.367630 471.778870,167.685806 
	C471.655670,167.715744 471.357361,167.598694 470.960388,167.240784 
z"/>
<path fill="#88CE65" opacity="1.000000" stroke="none" 
	d="
M98.285461,471.691467 
	C97.265656,471.907166 96.513596,471.899231 95.386276,471.868927 
	C93.305916,469.876373 91.794533,467.687683 89.861855,465.974182 
	C81.900673,458.915833 74.613091,451.302734 69.204277,441.791870 
	C86.827644,445.250092 101.301247,454.576813 115.358818,466.105286 
	C109.405106,468.005066 103.979156,469.736450 98.285461,471.691467 
z"/>
<path fill="#88CE65" opacity="1.000000" stroke="none" 
	d="
M139.497437,483.382202 
	C151.576843,487.047089 163.238205,490.617249 174.899551,494.187408 
	C174.781342,494.625549 174.663116,495.063690 174.544907,495.501831 
	C154.096161,497.870117 134.902328,493.927429 116.927635,483.423981 
	C124.342606,481.146210 131.709641,482.056641 139.497437,483.382202 
z"/>
<path fill="#88CE65" opacity="1.000000" stroke="none" 
	d="
M58.341919,424.132080 
	C57.501266,424.115112 57.089180,424.061737 56.367714,423.973938 
	C51.145203,412.120605 46.175209,400.324860 41.364452,388.464478 
	C40.338696,385.935638 39.891872,383.171936 38.906368,379.504242 
	C49.266239,395.039612 58.953739,409.566711 69.184654,424.908722 
	C65.432808,424.615814 62.101646,424.355774 58.341919,424.132080 
z"/>
<path fill="#88CE65" opacity="1.000000" stroke="none" 
	d="
M38.495193,376.510223 
	C38.488735,376.490540 38.501648,376.529907 38.495193,376.510223 
z"/>
<path fill="#88CE65" opacity="1.000000" stroke="none" 
	d="
M365.427734,95.017929 
	C365.041199,94.508522 364.995758,94.096321 364.911835,93.375641 
	C369.449615,76.721664 365.723755,60.873512 361.159729,43.966064 
	C371.165039,48.379642 379.880585,52.636543 387.196320,59.178463 
	C388.743347,60.561832 389.246185,63.303665 389.847046,65.523293 
	C393.550812,79.205917 393.943695,93.079941 391.959137,107.485062 
	C383.213593,103.641914 374.491180,99.378525 365.427734,95.017929 
z"/>
<path fill="#88CE65" opacity="1.000000" stroke="none" 
	d="
M448.845703,133.126877 
	C435.726746,127.287415 422.929565,121.644730 410.238281,115.773170 
	C408.881683,115.145546 407.213348,113.147247 407.262756,111.844460 
	C407.707153,100.126526 408.503540,88.421944 409.249268,75.822090 
	C429.364563,92.571785 444.712494,113.044014 457.597626,135.527466 
	C457.316071,135.874329 457.034485,136.221207 456.752930,136.568069 
	C454.234650,135.464523 451.716400,134.360977 448.845703,133.126877 
z"/>
<path fill="#88CE65" opacity="1.000000" stroke="none" 
	d="
M332.825562,64.141914 
	C326.216400,54.456367 321.074982,44.544083 319.648285,33.060555 
	C329.474457,30.578798 340.237762,35.439526 343.998749,43.965801 
	C348.676208,54.569641 351.441162,65.600800 351.007874,77.290741 
	C350.964935,78.449600 350.937317,79.614281 350.787659,80.761261 
	C350.730927,81.196190 350.349487,81.588753 349.320221,83.404739 
	C343.624084,76.765205 338.332123,70.596825 332.825562,64.141914 
z"/>
<path fill="#000000" opacity="1.000000" stroke="none" 
	d="
M375.998230,191.005096 
	C374.344696,203.126862 368.099579,210.699265 356.332855,213.286377 
	C348.019135,215.114288 338.984711,210.464676 334.362244,203.560760 
	C329.446594,196.218994 329.048340,188.225937 333.330383,180.217804 
	C337.522247,172.378342 344.757294,169.053986 352.905701,168.272049 
	C361.926422,167.406433 372.633728,176.222900 374.956055,185.339661 
	C375.394958,187.062744 375.655426,188.831314 375.998230,191.005096 
z"/>
<path fill="#000000" opacity="1.000000" stroke="none" 
	d="
M283.963928,175.309357 
	C283.396149,180.520676 280.242157,183.695450 275.551727,183.969162 
	C272.923767,184.122528 270.279541,183.996765 267.000153,183.996765 
	C267.000153,181.137741 267.000153,178.544647 267.000153,175.951569 
	C267.000153,173.490784 267.000153,171.029984 267.000153,168.640137 
	C276.454590,166.954285 280.480011,168.495041 283.963928,175.309357 
z"/>
<path fill="#000000" opacity="1.000000" stroke="none" 
	d="
M210.967102,302.163818 
	C212.036133,305.407654 213.069427,308.257751 214.280991,311.599579 
	C209.706238,311.599579 205.556259,311.599579 200.704163,311.599579 
	C202.869934,305.826630 204.980011,300.202057 207.331879,293.933014 
	C208.722778,296.961395 209.827072,299.365753 210.967102,302.163818 
z"/>
</svg>